<?xml version="1.0" encoding="utf-8"?>
<!-- Generator: Adobe Illustrator 25.2.0, SVG Export Plug-In . SVG Version: 6.00 Build 0)  -->
<svg version="1.1" id="Layer_1" xmlns="http://www.w3.org/2000/svg" xmlns:xlink="http://www.w3.org/1999/xlink" x="0px" y="0px"
	 viewBox="0 0 186.9 183.9" style="enable-background:new 0 0 186.9 183.9;" xml:space="preserve">
<style type="text/css">
	.st0{fill:none;stroke:#000000;stroke-width:15;stroke-miterlimit:10;}
</style>
<g id="Layer_2_1_">
	<g id="Layer_4">
		<path d="M47.8,123.3h91.3c5,0,9.1,4.1,9.1,9.1l0,0c0,5-4.1,9.1-9.1,9.1H47.8c-5,0-9.1-4.1-9.1-9.1l0,0
			C38.7,127.4,42.8,123.3,47.8,123.3z"/>
		<path d="M47.8,82.8h91.3c5,0,9.1,4.1,9.1,9.1l0,0c0,5-4.1,9.1-9.1,9.1H47.8c-5,0-9.1-4.1-9.1-9.1l0,0
			C38.7,86.9,42.8,82.8,47.8,82.8z"/>
		<path d="M139.1,60.5H47.8c-5,0-9.1-4.1-9.1-9.1s4.1-9.1,9.1-9.1c0,0,0,0,0,0h91.3c5,0,9.1,4.1,9.1,9.1
			C148.2,56.4,144.2,60.5,139.1,60.5C139.1,60.5,139.1,60.5,139.1,60.5z"/>
		<path class="st0" d="M36.5,7.5h113.9c16,0,29,13,29,29v110.8c0,16-13,29-29,29H36.5c-16,0-29-13-29-29V36.5
			C7.5,20.5,20.5,7.5,36.5,7.5z"/>
	</g>
</g>
</svg>
